<?xml version="1.0" encoding="UTF-8"?>
<svg id="OBJECTS" xmlns="http://www.w3.org/2000/svg" xmlns:xlink="http://www.w3.org/1999/xlink" viewBox="0 0 750 500">
  <defs>
    <style>
      .cls-1 {
        filter: url(#drop-shadow-2);
      }

      .cls-2 {
        filter: url(#drop-shadow-5);
      }

      .cls-3 {
        filter: url(#drop-shadow-4);
      }

      .cls-4 {
        filter: url(#drop-shadow-1);
      }

      .cls-5 {
        filter: url(#drop-shadow-3);
      }
    </style>
    <filter id="drop-shadow-1" x="382" y="132" width="54" height="54" filterUnits="userSpaceOnUse">
      <feOffset dx="7" dy="7"/>
      <feGaussianBlur result="blur" stdDeviation="5"/>
      <feFlood flood-color="#ed6a29" flood-opacity=".45"/>
      <feComposite in2="blur" operator="in"/>
      <feComposite in="SourceGraphic"/>
    </filter>
    <filter id="drop-shadow-2" x="638" y="274" width="41" height="41" filterUnits="userSpaceOnUse">
      <feOffset dx="7" dy="7"/>
      <feGaussianBlur result="blur-2" stdDeviation="5"/>
      <feFlood flood-color="#ed6a29" flood-opacity=".45"/>
      <feComposite in2="blur-2" operator="in"/>
      <feComposite in="SourceGraphic"/>
    </filter>
    <filter id="drop-shadow-3" x="638" y="293" width="41" height="41" filterUnits="userSpaceOnUse">
      <feOffset dx="7" dy="7"/>
      <feGaussianBlur result="blur-3" stdDeviation="5"/>
      <feFlood flood-color="#ed6a29" flood-opacity=".45"/>
      <feComposite in2="blur-3" operator="in"/>
      <feComposite in="SourceGraphic"/>
    </filter>
    <filter id="drop-shadow-4" x="363" y="140" width="41" height="41" filterUnits="userSpaceOnUse">
      <feOffset dx="7" dy="7"/>
      <feGaussianBlur result="blur-4" stdDeviation="5"/>
      <feFlood flood-color="#ed6a29" flood-opacity=".45"/>
      <feComposite in2="blur-4" operator="in"/>
      <feComposite in="SourceGraphic"/>
    </filter>
    <filter id="drop-shadow-5" x="344" y="140" width="41" height="41" filterUnits="userSpaceOnUse">
      <feOffset dx="7" dy="7"/>
      <feGaussianBlur result="blur-5" stdDeviation="5"/>
      <feFlood flood-color="#ed6a29" flood-opacity=".45"/>
      <feComposite in2="blur-5" operator="in"/>
      <feComposite in="SourceGraphic"/>
    </filter>
  </defs>
  <g id="Secondary_Shapes">
    <g>
      <g>
        <path d="M597.18,330.99c0,.9-.73,1.63-1.63,1.63s-1.63-.73-1.63-1.63.73-1.63,1.63-1.63,1.63.73,1.63,1.63Z"/>
        <circle cx="604.9" cy="330.99" r="1.63"/>
        <circle cx="614.25" cy="330.99" r="1.63"/>
        <path d="M625.23,330.99c0,.9-.73,1.63-1.63,1.63s-1.63-.73-1.63-1.63.73-1.63,1.63-1.63,1.63.73,1.63,1.63Z"/>
      </g>
      <g>
        <circle cx="586.21" cy="343.88" r="1.63"/>
        <path d="M597.18,343.88c0,.9-.73,1.63-1.63,1.63s-1.63-.73-1.63-1.63.73-1.63,1.63-1.63,1.63.73,1.63,1.63Z"/>
        <circle cx="604.9" cy="343.88" r="1.63"/>
        <circle cx="614.25" cy="343.88" r="1.63"/>
        <path d="M625.23,343.88c0,.9-.73,1.63-1.63,1.63s-1.63-.73-1.63-1.63.73-1.63,1.63-1.63,1.63.73,1.63,1.63Z"/>
        <circle cx="632.95" cy="343.88" r="1.63"/>
      </g>
      <g>
        <circle cx="586.21" cy="356.78" r="1.63"/>
        <path d="M597.18,356.78c0,.9-.73,1.63-1.63,1.63s-1.63-.73-1.63-1.63.73-1.63,1.63-1.63,1.63.73,1.63,1.63Z"/>
        <circle cx="604.9" cy="356.78" r="1.63"/>
        <circle cx="614.25" cy="356.78" r="1.63"/>
        <path d="M625.23,356.78c0,.9-.73,1.63-1.63,1.63s-1.63-.73-1.63-1.63.73-1.63,1.63-1.63,1.63.73,1.63,1.63Z"/>
        <circle cx="632.95" cy="356.78" r="1.63"/>
      </g>
      <g>
        <path d="M587.84,369.67c0,.9-.73,1.63-1.63,1.63s-1.63-.73-1.63-1.63.73-1.63,1.63-1.63,1.63.73,1.63,1.63Z"/>
        <path d="M597.18,369.67c0,.9-.73,1.63-1.63,1.63s-1.63-.73-1.63-1.63.73-1.63,1.63-1.63,1.63.73,1.63,1.63Z"/>
        <path d="M606.53,369.67c0,.9-.73,1.63-1.63,1.63s-1.63-.73-1.63-1.63.73-1.63,1.63-1.63,1.63.73,1.63,1.63Z"/>
        <path d="M615.88,369.67c0,.9-.73,1.63-1.63,1.63s-1.63-.73-1.63-1.63.73-1.63,1.63-1.63,1.63.73,1.63,1.63Z"/>
        <path d="M625.23,369.67c0,.9-.73,1.63-1.63,1.63s-1.63-.73-1.63-1.63.73-1.63,1.63-1.63,1.63.73,1.63,1.63Z"/>
        <path d="M634.57,369.67c0,.9-.73,1.63-1.63,1.63s-1.63-.73-1.63-1.63.73-1.63,1.63-1.63,1.63.73,1.63,1.63Z"/>
      </g>
      <g>
        <path d="M597.18,382.56c0,.9-.73,1.63-1.63,1.63s-1.63-.73-1.63-1.63.73-1.63,1.63-1.63,1.63.73,1.63,1.63Z"/>
        <circle cx="604.9" cy="382.56" r="1.63"/>
        <circle cx="614.25" cy="382.56" r="1.63"/>
        <path d="M625.23,382.56c0,.9-.73,1.63-1.63,1.63s-1.63-.73-1.63-1.63.73-1.63,1.63-1.63,1.63.73,1.63,1.63Z"/>
      </g>
    </g>
    <g>
      <g>
        <circle cx="462.82" cy="66.91" r="1.99"/>
        <path d="M476.27,66.91c0,1.1-.89,1.99-1.99,1.99s-1.99-.89-1.99-1.99.89-1.99,1.99-1.99,1.99.89,1.99,1.99Z"/>
        <circle cx="485.72" cy="66.91" r="1.99"/>
        <circle cx="497.16" cy="66.91" r="1.99"/>
        <circle cx="508.61" cy="66.91" r="1.99"/>
        <circle cx="520.06" cy="66.91" r="1.99"/>
      </g>
      <g>
        <path d="M464.82,82.7c0,1.1-.89,1.99-1.99,1.99s-1.99-.89-1.99-1.99.89-1.99,1.99-1.99,1.99.89,1.99,1.99Z"/>
        <path d="M476.27,82.7c0,1.1-.89,1.99-1.99,1.99s-1.99-.89-1.99-1.99.89-1.99,1.99-1.99,1.99.89,1.99,1.99Z"/>
        <path d="M487.71,82.7c0,1.1-.89,1.99-1.99,1.99s-1.99-.89-1.99-1.99.89-1.99,1.99-1.99,1.99.89,1.99,1.99Z"/>
        <path d="M499.16,82.7c0,1.1-.89,1.99-1.99,1.99s-1.99-.89-1.99-1.99.89-1.99,1.99-1.99,1.99.89,1.99,1.99Z"/>
        <path d="M510.6,82.7c0,1.1-.89,1.99-1.99,1.99s-1.99-.89-1.99-1.99.89-1.99,1.99-1.99,1.99.89,1.99,1.99Z"/>
        <path d="M522.05,82.7c0,1.1-.89,1.99-1.99,1.99s-1.99-.89-1.99-1.99.89-1.99,1.99-1.99,1.99.89,1.99,1.99Z"/>
      </g>
      <g>
        <path d="M476.27,98.49c0,1.1-.89,1.99-1.99,1.99s-1.99-.89-1.99-1.99.89-1.99,1.99-1.99,1.99.89,1.99,1.99Z"/>
        <circle cx="485.72" cy="98.49" r="1.99"/>
        <circle cx="497.16" cy="98.49" r="1.99"/>
        <circle cx="508.61" cy="98.49" r="1.99"/>
      </g>
    </g>
    <path d="M464.31,441.42h-1v-62.47c0-3.89-3.16-7.05-7.06-7.05s-7.05,3.17-7.05,7.05v62.47h-1v-62.47c0-4.44,3.61-8.05,8.05-8.05s8.06,3.61,8.06,8.05v62.47Z"/>
    <path class="cls-4" d="M402.06,163.62c-6.39,0-11.59-5.2-11.59-11.59s5.2-11.59,11.59-11.59,11.59,5.2,11.59,11.59-5.2,11.59-11.59,11.59ZM402.06,141.43c-5.84,0-10.59,4.75-10.59,10.59s4.75,10.59,10.59,10.59,10.59-4.75,10.59-10.59-4.75-10.59-10.59-10.59Z"/>
    <g>
      <path class="cls-1" d="M651.3,292.59c-2.78,0-5.04-2.26-5.04-5.04s2.26-5.04,5.04-5.04,5.04,2.26,5.04,5.04-2.26,5.04-5.04,5.04ZM651.3,283.5c-2.23,0-4.04,1.81-4.04,4.04s1.81,4.04,4.04,4.04,4.04-1.81,4.04-4.04-1.81-4.04-4.04-4.04Z"/>
      <path class="cls-5" d="M651.3,311.31c-2.78,0-5.04-2.26-5.04-5.04s2.26-5.04,5.04-5.04,5.04,2.26,5.04,5.04-2.26,5.04-5.04,5.04ZM651.3,302.22c-2.23,0-4.04,1.81-4.04,4.04s1.81,4.04,4.04,4.04,4.04-1.81,4.04-4.04-1.81-4.04-4.04-4.04Z"/>
    </g>
    <g>
      <path class="cls-3" d="M376.06,158.72c-2.78,0-5.04-2.26-5.04-5.04s2.26-5.04,5.04-5.04,5.04,2.26,5.04,5.04-2.26,5.04-5.04,5.04ZM376.06,149.63c-2.23,0-4.04,1.81-4.04,4.04s1.81,4.04,4.04,4.04,4.04-1.81,4.04-4.04-1.81-4.04-4.04-4.04Z"/>
      <path class="cls-2" d="M357.34,158.72c-2.78,0-5.04-2.26-5.04-5.04s2.26-5.04,5.04-5.04,5.04,2.26,5.04,5.04-2.26,5.04-5.04,5.04ZM357.34,149.63c-2.23,0-4.04,1.81-4.04,4.04s1.81,4.04,4.04,4.04,4.04-1.81,4.04-4.04-1.81-4.04-4.04-4.04Z"/>
    </g>
    <path d="M599.36,154.41c-10.56,0-19.15-8.59-19.15-19.15s8.59-19.15,19.15-19.15v1c-10.01,0-18.15,8.14-18.15,18.15s8.14,18.15,18.15,18.15v1Z"/>
    <path d="M432.4,303.81c-7.11,0-10.58-5.2-13.11-9-2.44-3.67-3.49-4.82-5.29-4.82s-2.85,1.14-5.29,4.82c-2.53,3.8-5.99,9-13.11,9s-10.58-5.2-13.11-9c-2.41-3.62-3.43-4.75-5.15-4.82-2.47-.09-4.49-1.79-4.8-4.04-.18-1.36.22-2.72,1.11-3.74.89-1.02,2.18-1.61,3.54-1.61,7.11,0,10.58,5.2,13.11,9,2.45,3.67,3.5,4.82,5.29,4.82s2.84-1.14,5.29-4.82c2.53-3.8,5.99-9,13.11-9s10.58,5.2,13.11,9c2.45,3.67,3.5,4.82,5.29,4.82s2.85-1.14,5.29-4.82c1.66-2.5,3.72-5.6,6.99-7.44,1.37-.77,3-.76,4.37.05,1.41.82,2.25,2.28,2.25,3.9v.5c0,1.53-.83,2.98-2.23,3.87-1.01.64-1.99,1.96-3.56,4.33-2.53,3.8-5.99,9-13.11,9ZM414.01,288.99c2.37,0,3.69,1.6,6.12,5.26,2.4,3.61,5.7,8.56,12.28,8.56s9.87-4.95,12.28-8.56c1.69-2.54,2.7-3.87,3.86-4.62,1.11-.71,1.77-1.84,1.77-3.03v-.5c0-1.26-.65-2.4-1.75-3.04-1.06-.62-2.32-.63-3.37-.04-3.06,1.73-5.05,4.71-6.65,7.12-2.44,3.66-3.75,5.27-6.12,5.27s-3.69-1.6-6.12-5.26c-2.41-3.61-5.7-8.56-12.28-8.56s-9.87,4.95-12.28,8.56c-2.49,3.74-3.74,5.26-6.12,5.26s-3.63-1.52-6.12-5.26c-2.41-3.61-5.7-8.56-12.28-8.56-1.07,0-2.08.46-2.78,1.27-.71.82-1.02,1.86-.88,2.95.24,1.77,1.86,3.11,3.84,3.18,2.27.08,3.55,1.67,5.94,5.26,2.41,3.61,5.7,8.56,12.28,8.56s9.87-4.95,12.28-8.56c2.43-3.66,3.75-5.26,6.12-5.26Z"/>
    <path d="M489.73,169.76c-5.29,0-7.86-3.85-9.73-6.67-1.74-2.61-2.47-3.43-3.67-3.48-1.88-.07-3.41-1.36-3.65-3.08-.14-1.03.17-2.07.85-2.85.68-.78,1.66-1.23,2.7-1.23,5.29,0,7.86,3.85,9.73,6.67,1.79,2.7,2.51,3.48,3.77,3.48s1.98-.78,3.77-3.48c1.87-2.81,4.44-6.67,9.73-6.67s7.86,3.85,9.73,6.67c1.14,1.72,1.86,2.68,2.58,3.14,1.06.68,1.7,1.78,1.7,2.95v.37c0,1.24-.64,2.35-1.71,2.98-1.05.61-2.3.63-3.34.04-2.42-1.37-3.95-3.66-5.18-5.5-1.79-2.69-2.51-3.48-3.77-3.48s-1.98.78-3.77,3.48c-1.87,2.81-4.44,6.67-9.73,6.67ZM476.23,153.45c-.75,0-1.45.32-1.94.88-.5.57-.71,1.3-.61,2.06.17,1.24,1.3,2.17,2.69,2.22,1.82.07,2.83,1.46,4.47,3.92,1.75,2.63,4.14,6.22,8.9,6.22s7.15-3.6,8.9-6.22c1.67-2.5,2.7-3.92,4.6-3.92s2.94,1.42,4.6,3.92c1.17,1.75,2.62,3.93,4.84,5.19.73.41,1.61.4,2.35-.03.76-.45,1.22-1.24,1.22-2.11v-.37c0-.83-.46-1.62-1.23-2.11-.87-.56-1.62-1.55-2.87-3.43-1.75-2.63-4.14-6.22-8.9-6.22s-7.15,3.6-8.9,6.22c-1.67,2.51-2.7,3.92-4.6,3.92s-2.94-1.42-4.6-3.92c-1.75-2.63-4.14-6.22-8.9-6.22Z"/>
    <rect x="68" y="130" width="98.8" height="1"/>
  </g>
</svg>